

<svg width="1108px" height="730px" viewBox="0 0 1108 730" version="1.1" xmlns="http://www.w3.org/2000/svg" xmlns:xlink="http://www.w3.org/1999/xlink">
    <g id="Page-1" stroke="none" stroke-width="1" fill="none" fill-rule="evenodd">
        <g id="undraw_react_y7wq" transform="translate(0.000000, 0.650216)">
            <path d="M767.68,328.1 L774.57,325.4 C775.23,325.14 775.88,324.86 776.57,324.59 C750.306806,314.920127 734.251576,288.340727 737.91368,260.594542 C741.575783,232.848356 763.977295,211.344702 791.85,208.82 L787.05,233.02 L805.27,209.1 L805.43,209.1 C838.180745,213.602637 861.083565,243.798009 856.59,276.55 C856.44,277.68 856.2,278.78 855.99,279.89 C861.6,275.46 866.86,270.57 870.8,264.89 C878.8,253.35 881.51,239.13 884.27,221.72 C889.74,187.24 894.67,152.38 899.11,117.54 C870.944876,109.042307 853.13683,81.329596 857.11,52.18 C857.36,50.36 857.71,48.59 858.11,46.84 C858.21,46.4 858.31,45.96 858.42,45.53 C858.85,43.84 859.33,42.18 859.89,40.53 C859.98,40.26 860.1,40.01 860.19,39.75 C860.69,38.38 861.19,37.03 861.84,35.75 C862.06,35.25 862.28,34.75 862.51,34.28 C863.2,32.85 863.93,31.45 864.73,30.09 C865,29.64 865.29,29.21 865.56,28.76 C866.18,27.76 866.83,26.76 867.5,25.83 C867.86,25.33 868.21,24.83 868.58,24.34 L868.85,23.95 L868.85,23.95 C886.370436,1.01820666 917.766917,-6.13265314 943.49,6.95 L937.25,38.44 L955.25,14.8 C975.122485,31.6360089 981.735172,59.4400888 971.57,83.42 L971.64,83.42 C971.47,83.82 971.26,84.2 971.09,84.6 C970.76,85.34 970.42,86.07 970.09,86.8 C969.63,87.73 969.09,88.64 968.64,89.54 C968.26,90.22 967.89,90.9 967.48,91.54 C966.89,92.54 966.25,93.44 965.61,94.37 C965.23,94.91 964.88,95.47 964.49,96 C963.49,97.39 962.37,98.72 961.23,100 C960.83,100.45 960.4,100.86 959.98,101.3 C959.17,102.16 958.36,103.01 957.5,103.82 C956.97,104.32 956.41,104.82 955.86,105.28 C955.07,105.98 954.26,106.66 953.43,107.28 C952.84,107.75 952.24,108.2 951.64,108.64 C950.77,109.27 949.89,109.86 949,110.45 C948.4,110.84 947.8,111.23 947.19,111.6 C946.19,112.21 945.14,112.77 944.09,113.32 C943.56,113.59 943.09,113.89 942.5,114.15 C940.92,114.92 939.3,115.63 937.65,116.26 C937.34,116.38 937.01,116.47 936.7,116.58 C935.32,117.08 933.93,117.58 932.52,117.93 C931.91,118.1 931.29,118.24 930.67,118.39 C929.52,118.67 928.36,118.93 927.19,119.15 C926.523333,119.27 925.833333,119.38 925.12,119.48 C923.97,119.65 922.81,119.78 921.64,119.88 C920.95,119.94 920.27,120 919.57,120.04 C918.31,120.1 917.04,120.11 915.77,120.1 C915.686742,120.094987 915.603258,120.094987 915.52,120.1 C913.64,134.766667 911.666667,149.433333 909.6,164.1 C919.401367,150.867792 934.223868,142.26109 950.574522,140.308095 C966.925177,138.3551 983.357808,143.228551 996,153.78 L980.32,180.36 L1005.53,163.77 C1015.06182,176.385412 1019.19786,192.267797 1017.03,207.93 C1016.29013,213.42915 1014.77508,218.795785 1012.53,223.87 C1002.6827,246.351848 980.10367,260.5392 955.57564,259.656818 C931.04761,258.774435 909.546393,243.00132 901.34,219.87 C901.11,221.35 900.89,222.87 900.66,224.33 C898.22,239.68 895.19,258.79 884.43,274.33 C877.14,284.89 867.1,292.69 857.34,299.55 C850.993333,304.016667 844.5,308.273333 837.86,312.32 C830.890382,318.782864 822.481708,323.492818 813.33,326.06 C802.663333,331.52 791.766667,336.456667 780.64,340.87 L773.69,343.59 C767.44,346.03 761.04,348.53 754.69,351.19 C755.69,351.28 756.69,351.36 757.69,351.49 C783.508326,355.035375 804.071793,374.867031 808.55,400.54 L766.24,423.65 L808.42,421.76 C806.731391,431.113059 802.814194,439.921605 797,447.44 C777.167067,473.113258 740.494468,478.319259 714.3,459.18 L716.4,463.09 C717.8,465.67 719.18,468.24 720.52,470.79 C738.85,505.53 740.18,535.53 724.27,555.28 L711.27,544.83 C726.76,525.61 714.47,495.06 705.77,478.56 C704.45,476.06 703.09,473.56 701.77,471 C690,449.17 676.65,424.43 682,398.1 C690,358.4 733.05,341.6 767.68,328.1 Z" id="Path" fill="#F2F2F2" fill-rule="nonzero"></path>
            <path d="M269.6,516.32 L264.22,514.21 C263.7,514.01 263.22,513.78 262.68,513.58 C283.183109,506.018676 295.712573,485.262341 292.851717,463.597471 C289.990862,441.9326 272.503053,425.140059 250.74,423.16 L254.49,442.06 L240.27,423.38 L240.14,423.38 C227.848505,425.058528 216.727786,431.552625 209.225756,441.432799 C201.723726,451.312973 198.455325,463.769346 200.14,476.06 C200.26,476.95 200.45,477.8 200.61,478.67 C196.198087,475.352848 192.302394,471.399866 189.05,466.94 C182.82,457.94 180.68,446.82 178.52,433.23 C174.29,406.3 170.45,379.08 167,351.9 C188.98772,345.253043 202.881633,323.608726 199.77,300.85 C199.57,299.43 199.3,298.05 198.98,296.68 L198.74,295.68 C198.4,294.36 198.03,293.06 197.59,291.8 C197.52,291.59 197.43,291.39 197.35,291.19 C196.96,290.12 196.53,289.07 196.07,288.04 C195.89,287.66 195.72,287.27 195.54,286.89 C195,285.78 194.43,284.69 193.81,283.63 C193.6,283.27 193.37,282.93 193.16,282.63 C192.67,281.85 192.16,281.08 191.64,280.34 C191.36,279.95 191.09,279.55 190.8,279.17 L190.59,278.87 L190.59,278.87 C176.907904,260.964473 152.401273,255.364399 132.3,265.55 L137.18,290.15 L123.11,271.69 C107.59219,284.839414 102.426593,306.55113 110.36,325.28 L110.31,325.28 C110.44,325.59 110.6,325.89 110.74,326.2 C111,326.78 111.26,327.35 111.54,327.92 C111.9,328.64 112.28,329.35 112.68,330.05 C112.97,330.59 113.26,331.12 113.58,331.64 C114.04,332.39 114.58,333.12 115.04,333.85 C115.34,334.27 115.61,334.71 115.92,335.12 C116.72,336.2 117.57,337.24 118.46,338.25 C118.77,338.6 119.11,338.92 119.46,339.25 C120.09,339.92 120.73,340.58 121.4,341.25 C121.81,341.65 122.25,342.02 122.68,342.39 C123.3,342.943333 123.93,343.473333 124.57,343.98 C125.03,344.34 125.5,344.69 125.97,345.04 C126.65,345.53 127.34,346.04 128.03,346.45 C128.5,346.76 128.97,347.06 129.45,347.35 C130.24,347.83 131.05,348.26 131.87,348.69 C132.29,348.91 132.69,349.14 133.11,349.35 C134.35,349.95 135.61,350.5 136.9,350.99 C137.14,351.09 137.4,351.15 137.64,351.24 C138.71,351.63 139.8,351.99 140.91,352.3 C141.38,352.43 141.91,352.54 142.35,352.65 C143.25,352.87 144.15,353.08 145.07,353.25 L146.68,353.51 C147.58,353.64 148.49,353.74 149.4,353.82 C149.94,353.87 150.47,353.91 151.02,353.94 C152.02,353.99 153.02,354 154.02,353.99 L154.21,353.99 C155.676667,365.47 157.216667,376.94 158.83,388.4 C151.189011,378.050785 139.618044,371.311019 126.846302,369.770385 C114.07456,368.229751 101.232814,372.024652 91.35,380.26 L103.49,400.9 L83.81,387.95 C76.3548054,397.7982 73.1173829,410.204722 74.81,422.44 C75.3905661,426.739565 76.5791115,430.934828 78.34,434.9 C86.0318462,452.456545 103.664908,463.535601 122.820146,462.847389 C141.975384,462.159177 158.767908,449.843274 165.18,431.78 C165.36,432.93 165.53,434.1 165.71,435.26 C167.61,447.26 169.98,462.18 178.38,474.34 C184.08,482.58 191.92,488.67 199.54,494.03 C204.5,497.523333 209.57,500.856667 214.75,504.03 C220.196043,509.076778 226.762942,512.757807 233.91,514.77 C242.23,519.03 250.75,522.91 259.45,526.33 L264.87,528.46 C269.75,530.36 274.75,532.31 279.68,534.39 C278.9,534.46 278.11,534.52 277.32,534.63 C257.166335,537.391423 241.108655,552.862909 237.6,572.9 L270.6,590.9 L237.66,589.43 C240.60765,605.224444 251.454723,618.401006 266.388597,624.328274 C281.322471,630.255542 298.253266,628.104041 311.23,618.63 C310.68,619.63 310.14,620.63 309.59,621.68 C308.5,623.68 307.42,625.68 306.37,627.68 C292.06,654.81 291.02,678.25 303.45,693.68 L313.58,685.52 C301.48,670.52 311.08,646.65 317.88,633.76 C318.88,631.81 319.97,629.84 321.04,627.86 C330.23,610.86 340.65,591.49 336.5,570.92 C330.29,539.98 296.64,526.9 269.6,516.32 Z" id="Path" fill="#F2F2F2" fill-rule="nonzero"></path>
            <ellipse id="Oval" fill="#3F3D56" fill-rule="nonzero" cx="554" cy="704.99" rx="554" ry="23.5"></ellipse>
            <ellipse id="Oval" fill="#000000" fill-rule="nonzero" opacity="0.1" cx="554" cy="704.99" rx="554" ry="23.5"></ellipse>
            <ellipse id="Oval" fill="#3F3D56" fill-rule="nonzero" cx="554" cy="691.99" rx="554" ry="23.5"></ellipse>
            <path d="M85,683.63 C82,678.12 85.4,671.37 89.28,666.45 C93.16,661.53 97.89,656.45 97.79,650.16 C97.65,641.16 88.09,635.85 80.46,631.08 C74.7987147,627.537405 69.5758412,623.338295 64.9,618.57 C62.9455686,616.731801 61.3278425,614.565808 60.12,612.17 C58.54,608.65 58.59,604.65 58.69,600.79 C59.0233333,587.95 59.6566667,575.123333 60.59,562.31" id="Path" stroke="#3F3D56" stroke-width="4"></path>
            <path d="M46.11,561.6 C46.329435,556.82633 48.9686086,552.494315 53.11,550.11 L56.25,556.32 L56.16,548.8 C57.6574299,548.354274 59.2194444,548.164939 60.78,548.24 C68.4948701,548.617312 74.446547,555.171564 74.0803784,562.886971 C73.7142099,570.602378 67.1685601,576.563515 59.4526323,576.20849 C51.7367045,575.853466 45.7661198,569.316433 46.11,561.6 L46.11,561.6 Z" id="Path" fill="#6C63FF" fill-rule="nonzero"></path>
            <path d="M71.14,656.6 C74.0086755,662.309731 80.3793769,665.352578 86.6234405,663.995377 C92.8675041,662.638177 97.4002958,657.225363 97.64,650.84 C97.7398403,648.900462 97.4297678,646.961657 96.73,645.15 C94.6696789,639.660117 89.4063914,636.035855 83.5427218,636.069106 C77.6790521,636.102818 72.4574951,639.786947 70.46,645.3 L79.23,652.43 L69.5899592,650.19 C69.5845931,652.420115 70.1162434,654.618746 71.14,656.6 L71.14,656.6 Z" id="Path" fill="#6C63FF" fill-rule="nonzero"></path>
            <path d="M78.07,629.35 C85.3202872,629.89849 91.7836724,624.805472 92.9460406,617.627979 C94.1084087,610.450486 89.5828172,603.577845 82.53,601.81 L82.6,607.6 L79.42,601.31 L79.42,601.31 C71.6742064,600.948253 65.1017465,606.934206 64.74,614.68 C64.3782535,622.425794 70.3642064,628.998253 78.11,629.36 L78.07,629.35 Z" id="Path" fill="#6C63FF" fill-rule="nonzero"></path>
            <path d="M44,606.68 C49.0017183,606.915795 53.7492918,604.465294 56.4543557,600.251577 C59.1594195,596.037859 59.4110101,590.701089 57.1143557,586.251577 C54.8177012,581.802064 50.3217183,578.915795 45.32,578.68 C42.6953731,578.549498 40.0876235,579.166758 37.8,580.46 L40.28,587.26 L35.17,582.36 C32.4369544,584.86309 30.8079119,588.34773 30.64,592.05 C30.5722368,593.344009 30.6935124,594.640985 31,595.9 C32.4342095,601.99668 37.743201,606.399059 44,606.68 L44,606.68 Z" id="Path" fill="#6C63FF" fill-rule="nonzero"></path>
            <path d="M48,565.34 C51.24,565.7 54.39,566.71 57.64,566.91 C60.89,567.11 64.46,566.33 66.52,563.81 C67.63,562.44 68.18,560.72 69.11,559.24 C70.0007386,557.857887 71.2160621,556.714658 72.65,555.91 C74.9602155,560.739131 74.3143568,566.462905 70.9861146,570.655804 C67.6578724,574.848703 62.2299854,576.776596 57.002587,575.622514 C51.7751885,574.468433 47.663539,570.434444 46.41,565.23 C46.94,565.25 47.47,565.29 48,565.34 Z" id="Path" fill="#000000" fill-rule="nonzero" opacity="0.1"></path>
            <path d="M44,606.68 C48.9240036,606.92984 53.6164357,604.571217 56.3536605,600.470506 C59.0908852,596.369795 59.4693362,591.131589 57.35,586.68 C56.2359401,587.432221 55.278273,588.393284 54.53,589.51 C53.53,591.02 52.92,592.76 51.75,594.15 C49.56,596.72 45.83,597.56 42.44,597.4 C39.05,597.24 35.78,596.29 32.44,595.98 C31.97,595.98 31.5,595.9 31.03,595.89 C32.4572921,601.980337 37.7516226,606.384795 44,606.68 L44,606.68 Z" id="Path" fill="#000000" fill-rule="nonzero" opacity="0.1"></path>
            <path d="M78.07,629.35 C82.9483936,629.600573 87.6046525,627.290292 90.3560738,623.254057 C93.107495,619.217822 93.5561874,614.039326 91.54,609.59 C90.3739529,610.348325 89.3570868,611.314348 88.54,612.44 C87.45,613.98 86.77,615.75 85.54,617.17 C83.18,619.81 79.2,620.74 75.61,620.65 C72.02,620.56 68.79,619.72 65.33,619.46 C67.0604582,625.117346 72.1602511,629.07629 78.07,629.35 L78.07,629.35 Z" id="Path" fill="#000000" fill-rule="nonzero" opacity="0.1"></path>
            <path d="M71.14,656.6 C74.0086755,662.309731 80.3793769,665.352578 86.6234405,663.995377 C92.8675041,662.638177 97.4002958,657.225363 97.64,650.84 C97.7398403,648.900462 97.4297678,646.961657 96.73,645.15 C95.5737532,645.906348 94.5358373,646.829688 93.65,647.89 C92.31,649.52 91.44,651.36 89.89,652.89 C87.02,655.71 82.39,656.89 78.27,656.98 C75.8880258,656.989633 73.5074568,656.862758 71.14,656.6 Z" id="Path" fill="#000000" fill-rule="nonzero" opacity="0.1"></path>
            <path d="M106.19,677.29 C106.19,677.29 95.11,676.95 91.78,674.57 C88.45,672.19 74.78,669.35 73.91,673.17 C73.04,676.99 57.26,692.17 69.77,692.23 C82.28,692.29 98.83,690.23 102.16,688.23 C105.49,686.23 106.19,677.29 106.19,677.29 Z" id="Path" fill="#656380" fill-rule="nonzero"></path>
            <path d="M69.54,690.9 C82.05,691 98.6,688.9 101.94,686.9 C104.47,685.36 105.48,679.81 105.82,677.25 L106.19,677.25 C106.19,677.25 105.49,686.18 102.19,688.25 C98.89,690.32 82.3,692.33 69.8,692.25 C66.19,692.25 64.94,690.94 65.01,689.03 C65.48,690.16 66.86,690.9 69.54,690.9 Z" id="Path" fill="#000000" fill-rule="nonzero" opacity="0.2"></path>
            <path d="M1055,692.63 C1052,687.12 1055.4,680.37 1059.28,675.45 C1063.16,670.53 1067.89,665.45 1067.79,659.16 C1067.65,650.16 1058.09,644.85 1050.46,640.08 C1044.79871,636.537405 1039.57584,632.338295 1034.9,627.57 C1032.94557,625.731801 1031.32784,623.565808 1030.12,621.17 C1028.54,617.65 1028.59,613.65 1028.69,609.79 C1029.01667,596.95 1029.65,584.123333 1030.59,571.31" id="Path" stroke="#3F3D56" stroke-width="4"></path>
            <path d="M1016.11,570.6 C1016.32943,565.82633 1018.96861,561.494315 1023.11,559.11 L1026.25,565.32 L1026.16,557.8 C1027.65743,557.354274 1029.21944,557.164939 1030.78,557.24 C1038.49324,557.622749 1044.43977,564.179095 1044.07009,571.892968 C1043.70041,579.606842 1037.15414,585.564477 1029.43966,585.207861 C1021.72517,584.851244 1015.75645,578.315082 1016.1,570.6 L1016.11,570.6 Z" id="Path" fill="#6C63FF" fill-rule="nonzero"></path>
            <path d="M1041.14,665.6 C1044.00868,671.309731 1050.37938,674.352578 1056.62344,672.995377 C1062.8675,671.638177 1067.4003,666.225363 1067.64,659.84 C1067.73984,657.900462 1067.42977,655.961657 1066.73,654.15 C1064.66968,648.660117 1059.40639,645.035855 1053.54272,645.069106 C1047.67905,645.102818 1042.4575,648.786947 1040.46,654.3 L1049.23,661.43 L1039.58996,659.19 C1039.58459,661.420115 1040.11624,663.618746 1041.14,665.6 Z" id="Path" fill="#6C63FF" fill-rule="nonzero"></path>
            <path d="M1048.07,638.35 C1055.32029,638.89849 1061.78367,633.805472 1062.94604,626.627979 C1064.10841,619.450486 1059.58282,612.577845 1052.53,610.81 L1052.6,616.6 L1049.42,610.31 L1049.42,610.31 C1041.67421,609.948253 1035.10175,615.934206 1034.74,623.68 C1034.37825,631.425794 1040.36421,637.998253 1048.11,638.36 L1048.07,638.35 Z" id="Path" fill="#6C63FF" fill-rule="nonzero"></path>
            <path d="M1014,615.68 C1021.73199,616.044508 1028.29549,610.071986 1028.66,602.34 C1029.02451,594.608014 1023.05199,588.044508 1015.32,587.68 C1012.69537,587.549498 1010.08762,588.166758 1007.8,589.46 L1010.28,596.26 L1005.17,591.36 C1002.43695,593.86309 1000.80791,597.34773 1000.64,601.05 C1000.57224,602.344009 1000.69351,603.640985 1001,604.9 C1002.43421,610.99668 1007.7432,615.399059 1014,615.68 L1014,615.68 Z" id="Path" fill="#6C63FF" fill-rule="nonzero"></path>
            <path d="M1018,574.34 C1021.24,574.7 1024.39,575.71 1027.64,575.91 C1030.89,576.11 1034.46,575.33 1036.52,572.81 C1037.63,571.44 1038.18,569.72 1039.11,568.24 C1040.00074,566.857887 1041.21606,565.714658 1042.65,564.91 C1044.96022,569.739131 1044.31436,575.462905 1040.98611,579.655804 C1037.65787,583.848703 1032.22999,585.776596 1027.00259,584.622514 C1021.77519,583.468433 1017.66354,579.434444 1016.41,574.23 C1016.94,574.25 1017.47,574.29 1018,574.34 Z" id="Path" fill="#000000" fill-rule="nonzero" opacity="0.1"></path>
            <path d="M1014,615.68 C1018.924,615.92984 1023.61644,613.571217 1026.35366,609.470506 C1029.09089,605.369795 1029.46934,600.131589 1027.35,595.68 C1026.23594,596.432221 1025.27827,597.393284 1024.53,598.51 C1023.53,600.02 1022.92,601.76 1021.75,603.15 C1019.56,605.72 1015.83,606.56 1012.44,606.4 C1009.05,606.24 1005.78,605.29 1002.44,604.98 C1001.97,604.98 1001.5,604.9 1001.03,604.89 C1002.45729,610.980337 1007.75162,615.384795 1014,615.68 Z" id="Path" fill="#000000" fill-rule="nonzero" opacity="0.1"></path>
            <path d="M1048.07,638.35 C1052.94839,638.600573 1057.60465,636.290292 1060.35607,632.254057 C1063.1075,628.217822 1063.55619,623.039326 1061.54,618.59 C1060.37395,619.348325 1059.35709,620.314348 1058.54,621.44 C1057.45,622.98 1056.77,624.75 1055.54,626.17 C1053.18,628.81 1049.2,629.74 1045.61,629.65 C1042.02,629.56 1038.79,628.72 1035.33,628.46 C1037.06046,634.117346 1042.16025,638.07629 1048.07,638.35 Z" id="Path" fill="#000000" fill-rule="nonzero" opacity="0.1"></path>
            <path d="M1041.14,665.6 C1044.00868,671.309731 1050.37938,674.352578 1056.62344,672.995377 C1062.8675,671.638177 1067.4003,666.225363 1067.64,659.84 C1067.73984,657.900462 1067.42977,655.961657 1066.73,654.15 C1065.57375,654.906348 1064.53584,655.829688 1063.65,656.89 C1062.31,658.52 1061.44,660.36 1059.89,661.89 C1057.02,664.71 1052.39,665.89 1048.27,665.98 C1045.88803,665.989633 1043.50746,665.862758 1041.14,665.6 L1041.14,665.6 Z" id="Path" fill="#000000" fill-rule="nonzero" opacity="0.1"></path>
            <path d="M1076.19,686.29 C1076.19,686.29 1065.11,685.95 1061.78,683.57 C1058.45,681.19 1044.78,678.35 1043.91,682.17 C1043.04,685.99 1027.26,701.17 1039.77,701.23 C1052.28,701.29 1068.83,699.23 1072.16,697.23 C1075.49,695.23 1076.19,686.29 1076.19,686.29 Z" id="Path" fill="#656380" fill-rule="nonzero"></path>
            <path d="M1039.54,699.9 C1052.05,700 1068.6,697.9 1071.94,695.9 C1074.47,694.36 1075.48,688.81 1075.82,686.25 L1076.19,686.25 C1076.19,686.25 1075.49,695.18 1072.19,697.25 C1068.89,699.32 1052.3,701.33 1039.8,701.25 C1036.19,701.25 1034.94,699.94 1035.01,698.03 C1035.48,699.16 1036.86,699.9 1039.54,699.9 Z" id="Path" fill="#000000" fill-rule="nonzero" opacity="0.2"></path>
            <path d="M745.57,328.46 C738.956667,326.193333 732.29,324.093333 725.57,322.16 C726.676667,317.633333 727.706667,313.083333 728.66,308.51 C743.8,235 733.9,175.78 700.09,156.29 C667.67,137.59 614.65,157.09 561.09,203.68 C555.81,208.293333 550.653333,213.026667 545.62,217.88 C542.24,214.646667 538.806667,211.476667 535.32,208.37 C479.21,158.54 423,137.55 389.18,157.1 C356.79,175.85 347.18,231.52 360.83,301.19 C362.163333,308.09 363.693333,314.95 365.42,321.77 C357.47,324.03 349.78,326.44 342.42,329.01 C276.63,351.9 234.61,387.9 234.61,425.19 C234.61,463.7 279.72,502.33 348.25,525.75 C353.81,527.636667 359.41,529.39 365.05,531.01 C363.223333,538.343333 361.596667,545.736667 360.17,553.19 C347.17,621.65 357.33,676.01 389.63,694.64 C423,713.9 479,694.1 533.52,646.44 C537.83,642.67 542.15,638.67 546.52,634.49 C551.973333,639.75 557.57,644.856667 563.31,649.81 C616.13,695.26 668.31,713.62 700.57,694.93 C733.9,675.64 744.73,617.24 730.67,546.2 C729.603333,540.773333 728.36,535.236667 726.94,529.59 C730.88,528.43 734.733333,527.226667 738.5,525.98 C809.74,502.38 856.1,464.22 856.1,425.19 C856.1,387.76 812.72,351.57 745.6,328.46 L745.57,328.46 Z" id="Path" fill="#53C1DE" fill-rule="nonzero"></path>
            <path d="M730.12,500.78 C726.72,501.91 723.24,502.99 719.68,504.05 C710.994116,477.120999 700.479663,450.816491 688.21,425.32 C700.012017,400.163481 710.117913,374.245616 718.46,347.74 C724.81,349.58 730.99,351.52 736.93,353.57 C794.44,373.36 829.52,402.63 829.52,425.19 C829.52,449.19 791.63,480.4 730.12,500.78 L730.12,500.78 Z M704.6,551.36 C710.82,582.77 711.7,611.17 707.6,633.36 C703.9,653.31 696.46,666.61 687.26,671.94 C667.67,683.27 625.79,668.54 580.62,629.67 C575.44,625.21 570.23,620.46 564.99,615.42 C583.821952,594.570679 601.224855,572.47377 617.08,549.28 C645.401406,546.880481 673.524365,542.536909 701.25,536.28 C702.516667,541.4 703.64,546.4 704.62,551.28 L704.6,551.36 Z M446.48,670 C427.34,676.76 412.1,676.95 402.89,671.64 C383.29,660.33 375.14,616.64 386.26,558.14 C387.593333,551.226667 389.103333,544.35 390.79,537.51 C418.40099,543.438411 446.381615,547.491008 474.54,549.64 C490.858921,572.752849 508.68074,594.767054 527.89,615.54 C524.03,619.28 520.083333,622.916667 516.05,626.45 C491.94,647.53 467.77,662.45 446.48,670 L446.48,670 Z M356.84,500.63 C326.53,490.27 301.51,476.81 284.35,462.13 C268.94,448.93 261.16,435.82 261.16,425.19 C261.16,402.56 294.9,373.69 351.16,354.08 C358.226667,351.62 365.356667,349.376667 372.55,347.35 C380.90662,374.14876 391.02534,400.365899 402.84,425.83 C390.878239,451.659202 380.635936,478.250438 372.18,505.43 C367.02,503.956667 361.906667,502.356667 356.84,500.63 Z M386.89,296.09 C375.21,236.4 382.96,191.37 402.48,180.09 C423.27,168.09 469.24,185.21 517.7,228.24 C520.8,230.99 523.91,233.87 527.02,236.84 C507.948028,257.486216 490.265915,279.374219 474.09,302.36 C446.197318,304.861326 418.495976,309.16701 391.16,315.25 C389.566667,308.903333 388.143333,302.52 386.89,296.1 L386.89,296.09 Z M655,362.28 C648.926667,351.786667 642.63,341.426667 636.11,331.2 C655.94,333.71 674.93,337.03 692.77,341.11 C687.045041,359.270131 680.406586,377.129545 672.88,394.62 C667.14,383.72 661.18,372.94 655,362.28 Z M545.64,255.81 C558.563456,269.899923 570.768924,284.631925 582.21,299.95 C557.736667,298.796667 533.253333,298.796667 508.76,299.95 C520.83,284.03 533.2,269.23 545.64,255.82 L545.64,255.81 Z M435.64,362.46 C429.54,373.04 423.69,383.753333 418.09,394.6 C410.36,376.27 403.75,358.24 398.35,340.83 C416.08,336.83 434.99,333.62 454.69,331.15 C448.076667,341.443333 441.72,351.88 435.62,362.46 L435.64,362.46 Z M455.25,521.11 C436.02152,519.022561 416.912996,515.948508 398,511.9 C403.49,494.19 410.25,475.77 418.15,457.04 C423.77,467.9 429.64,478.62 435.76,489.2 C441.986667,499.993333 448.476667,510.63 455.23,521.11 L455.25,521.11 Z M546.39,596.44 C533.79,582.9 521.24,567.9 509,551.69 C520.9,552.163333 533.02,552.4 545.36,552.4 C558.026667,552.4 570.53,552.12 582.87,551.56 C571.479145,567.134584 559.296454,582.114287 546.37,596.44 L546.39,596.44 Z M673.08,456.09 C680.996587,473.934852 687.979359,492.179513 694,510.75 C674.852846,515.058296 655.492927,518.359496 636,520.64 C642.566667,510.22 648.926667,499.676667 655.08,489.01 C661.333333,478.17 667.333333,467.196667 673.08,456.09 Z M632.08,475.75 C622.666667,492.096667 612.73,508.13 602.27,523.85 C583.83,525.17 564.78,525.85 545.36,525.85 C525.94,525.85 507.21,525.25 489.09,524.07 C478.363333,508.403333 468.233333,492.346667 458.7,475.9 C449.166667,459.453333 440.33,442.76 432.19,425.82 C440.37,408.8 449.18,392.1 458.62,375.72 L458.62,375.72 C468.046667,359.346667 478.09,343.346667 488.75,327.72 C507.24,326.32 526.18,325.59 545.34,325.59 C564.5,325.59 583.56,326.33 602.03,327.73 C612.57,343.31 622.57,359.246667 632.03,375.54 C641.49,391.833333 650.42,408.456667 658.82,425.41 C650.52,442.49 641.616667,459.256667 632.11,475.71 L632.08,475.75 Z M686.85,179.29 C707.66,191.29 715.75,239.69 702.68,303.16 C701.82,307.286667 700.886667,311.403333 699.88,315.51 C672.503585,309.303714 644.74617,304.917448 616.79,302.38 C600.769794,279.373559 583.22018,257.470785 564.26,236.82 C568.926667,232.326667 573.69,227.956667 578.55,223.71 C624.43,183.78 667.31,168.02 686.85,179.29 L686.85,179.29 Z" id="Shape" fill="#FFFFFF" fill-rule="nonzero"></path>
            <path d="M545.339999,369.689999 C567.787655,369.689999 588.024969,383.212141 596.615314,403.95107 C605.20566,424.689999 600.457315,448.561538 584.584426,464.434426 C568.711538,480.307315 544.839999,485.05566 524.10107,476.465314 C503.362141,467.874969 489.839999,447.637655 489.839999,425.189999 C489.837347,410.469672 495.6838,396.351488 506.092644,385.942644 C516.501488,375.5338 530.619672,369.687347 545.339999,369.689999" id="Path" fill="#53C1DE" fill-rule="nonzero"></path>
            <rect id="Rectangle" fill="#3F3D56" fill-rule="nonzero" x="521.91" y="40.83" width="44.47" height="69.37"></rect>
            <rect id="Rectangle" fill="#000000" fill-rule="nonzero" opacity="0.1" x="521.91" y="40.83" width="44.47" height="69.37"></rect>
            <path d="M451.66,292.51 C451.66,292.51 446.91,305.56 435.66,307.34 C424.41,309.12 417.87,312.08 417.87,312.08 L444.55,329.27 L458.78,327.49 C458.78,327.49 460.56,309.11 466.49,304.96 C472.42,300.81 451.66,292.51 451.66,292.51 Z" id="Path" fill="#D18D63" fill-rule="nonzero"></path>
            <path d="M644.34,292.51 C644.34,292.51 649.09,305.56 660.34,307.34 C671.59,309.12 678.13,312.08 678.13,312.08 L651.45,329.27 L637.22,327.49 C637.22,327.49 635.44,309.11 629.51,304.96 C623.58,300.81 644.34,292.51 644.34,292.51 Z" id="Path" fill="#D18D63" fill-rule="nonzero"></path>
            <path d="M514.5,177.49 C514.5,177.49 507.39,181.05 505.02,188.17 C505.02,188.17 492.02,192.32 484.86,203.58 C484.86,203.58 475.96,213.07 474.78,217.81 C473.6,222.55 460,251.01 460,251.01 C460,251.01 446.36,295.48 439.25,300.22 C439.25,300.22 461.78,295.48 465.93,318.01 C465.93,318.01 471.26,318.01 477.19,297.26 C483.12,276.51 497.35,251.01 497.35,251.01 C497.35,251.01 502.09,233.23 506.24,230.26 C510.39,227.29 516.91,213.66 522.84,217.26 C528.77,220.86 567.9,216.66 567.9,216.66 C567.9,216.66 591,227.3 591.58,234.41 C592.16,241.52 596.32,242.12 596.91,248.05 C597.5,253.98 619.44,300.81 619.44,300.81 C619.44,300.81 623.59,313.81 624.78,316.81 C624.78,316.81 637.78,285.39 655.02,303.18 C655.02,303.18 654.42,291.32 649.09,284.18 C643.76,277.04 620.63,221.34 620.63,221.34 C620.63,221.34 618.26,213.04 615.89,210.67 C613.52,208.3 595.13,189.32 588.61,189.32 C588.61,189.32 585.06,180.43 580.91,179.24 L514.5,177.49 Z" id="Path" fill="#3F3D56" fill-rule="nonzero"></path>
            <path d="M461.14,323.34 C451.720689,327.121749 441.007744,325.68298 432.92,319.55 C429.056395,316.582877 424.824468,314.1291 420.33,312.25 C414.04,309.71 406.52,307.83 404.23,312.08 C400.08,319.79 454.62,338.76 454.62,338.76 C454.62,338.76 461.74,334.61 461.14,323.34 Z" id="Path" fill="#3F3D56" fill-rule="nonzero"></path>
            <path d="M634.86,323.34 C644.279311,327.121749 654.992256,325.68298 663.08,319.55 C666.943605,316.582877 671.175532,314.1291 675.67,312.25 C681.96,309.71 689.48,307.83 691.77,312.08 C695.92,319.79 641.38,338.76 641.38,338.76 C641.38,338.76 634.26,334.61 634.86,323.34 Z" id="Path" fill="#3F3D56" fill-rule="nonzero"></path>
            <path d="M533.88,79.98 C533.66,82.04 532.98,84.27 531.22,85.36 C529.78,86.26 527.96,86.19 526.3,86.53 C522.765266,87.415094 519.862121,89.9284305 518.48,93.3 C517.148493,96.6552849 516.88654,100.340097 517.73,103.85 C518.122355,105.568915 518.630174,107.259416 519.25,108.91 C520.99,113.83 523.09,118.71 526.34,122.8 C529.113233,126.051519 532.23153,128.992107 535.64,131.57 C537.75,133.29 539.93,135.04 542.53,135.85 C544.292711,136.315368 546.106938,136.557265 547.93,136.57 C550.18,136.67 552.58,136.74 554.53,135.62 C557.53,133.89 558.42,130.07 560.05,127 C561.43,124.4 563.49,122.19 564.78,119.54 C565.696571,117.451326 566.367725,115.263366 566.78,113.02 L569.55,100.72 C570.55,96.25 571.47,91.21 568.96,87.38 C568.77777,87.0683693 568.524147,86.8044638 568.22,86.61 C567.73715,86.4195863 567.210756,86.3676396 566.7,86.46 C563.511709,86.6672596 560.332112,85.9409909 557.55,84.37 C557.113807,84.1444794 556.723741,83.8392104 556.4,83.47 C556.000491,82.829479 555.760443,82.1024765 555.7,81.35 C555.429618,79.8261037 555.000618,78.3346597 554.42,76.9 C554.256454,76.3829051 553.955792,75.9198159 553.55,75.56 C553.124217,75.2931083 552.640761,75.1319561 552.14,75.09 C547.859054,74.3954238 543.542094,73.9446971 539.21,73.74 C537.79,73.67 535.65,73.1 534.67,74.36 C533.69,75.62 534,78.48 533.88,79.98 Z" id="Path" fill="#D18D63" fill-rule="nonzero"></path>
            <path d="M533.88,79.98 C533.733333,81.3533333 532.846667,83.1466667 531.22,85.36 C529.046667,85.9133333 527.406667,86.3033333 526.3,86.53 C522.765266,87.415094 519.862121,89.9284305 518.48,93.3 C517.148493,96.6552849 516.88654,100.340097 517.73,103.85 C518.122355,105.568915 518.630174,107.259416 519.25,108.91 C520.99,113.83 523.09,118.71 526.34,122.8 C529.113233,126.051519 532.23153,128.992107 535.64,131.57 C537.75,133.29 539.93,135.04 542.53,135.85 C544.292711,136.315368 546.106938,136.557265 547.93,136.57 C550.18,136.67 552.58,136.74 554.53,135.62 C557.53,133.89 558.42,130.07 560.05,127 C561.43,124.4 563.49,122.19 564.78,119.54 C565.696571,117.451326 566.367725,115.263366 566.78,113.02 L569.55,100.72 C570.55,96.25 571.47,91.21 568.96,87.38 C568.77777,87.0683693 568.524147,86.8044638 568.22,86.61 C567.73715,86.4195863 567.210756,86.3676396 566.7,86.46 C563.511709,86.6672596 560.332112,85.9409909 557.55,84.37 C557.113807,84.1444794 556.723741,83.8392104 556.4,83.47 C556.000491,82.829479 555.760443,82.1024765 555.7,81.35 C555.429618,79.8261037 555.000618,78.3346597 554.42,76.9 C554.256454,76.3829051 553.955792,75.9198159 553.55,75.56 C553.124217,75.2931083 552.640761,75.1319561 552.14,75.09 C547.859054,74.3954238 543.542094,73.9446971 539.21,73.74 C537.79,73.67 535.65,73.1 534.67,74.36 C533.69,75.62 534,78.48 533.88,79.98 Z" id="Path" fill="#241B1B" fill-rule="nonzero" opacity="0.1"></path>
            <path d="M525.85,87.05 C523.534354,86.3584334 521.136155,85.9817177 518.72,85.93 C513,85.79 506.88,87.76 503.58,92.43 C501.331823,95.8008615 500.508579,99.9242754 501.29,103.9 C502.086344,107.838489 503.87635,111.508002 506.49,114.56 C508.000171,116.164304 509.340615,117.920286 510.49,119.8 C512.07,122.8 512.12,126.39 512.55,129.8 C513.55,137.92 517.01,145.55 518.38,153.62 C519.75,161.69 518.57,171.04 512.2,176.17 C511.13,177.03 509.83,177.94 509.74,179.31 C509.6,181.5 512.45,182.43 514.64,182.64 C521.19,183.26 527.91,183.87 534.27,182.18 C536.9,181.48 539.44,180.39 542.12,179.89 C548.92,178.62 555.76,181.23 562.57,182.48 C567.498154,183.2936 572.485145,183.698312 577.48,183.69 C578.642511,183.793921 579.813637,183.640275 580.91,183.24 C582.024627,182.802831 582.728312,181.694729 582.65,180.5 C582.427808,179.746142 582.022411,179.059029 581.47,178.5 C578.03,174.25 576.98,168.6 576.04,163.21 L572.89,145.1 C571.2,135.42 569.63,124.9 574.21,116.21 C577.5,109.96 583.57,105.56 587.04,99.41 C588.249604,97.5511514 588.795796,95.3381909 588.59,93.13 C588.07,90.04 585.28,87.83 582.42,86.54 C576.917044,84.0714122 570.669265,83.8418726 565,85.9 C565.1,90.23 564,94.61 563.29,98.9 L562.08,105.9 C561.464208,110.025247 560.558635,114.102 559.37,118.1 C558.93835,119.69944 558.201491,121.200323 557.2,122.52 C556.132238,123.707325 554.827539,124.657745 553.37,125.31 C550.213555,126.853303 546.743492,127.647242 543.23,127.63 C541.708504,127.653374 540.193952,127.420106 538.75,126.94 C536.423936,125.920253 534.325926,124.444506 532.58,122.6 C531.968143,122.076991 531.420935,121.482784 530.95,120.83 C530.451707,119.998926 530.077743,119.099392 529.84,118.16 C529.030236,115.714096 528.392021,113.2147 527.93,110.68 C527.63,108.74 527.53,106.77 527.39,104.81 C527,99.02 527,92.62 525.85,87.05 Z" id="Path" fill="#6C63FF" fill-rule="nonzero"></path>
            <path d="M519.84,201.8 C519.84,201.8 517.47,233.23 532.29,238.56 C547.11,243.89 534.07,212.47 534.07,212.47 L529.32,202.99 L519.84,201.8 Z" id="Path" fill="#D18D63" fill-rule="nonzero"></path>
            <path d="M570.23,201.8 C570.23,201.8 572.6,233.23 557.78,238.56 C542.96,243.89 556,212.47 556,212.47 L560.75,202.99 L570.23,201.8 Z" id="Path" fill="#D18D63" fill-rule="nonzero"></path>
            <path d="M506.79,96.9 L502.05,104.61 C502.05,104.61 506.2,131.29 506.79,136.03 C507.301724,139.450322 508.097817,142.822008 509.17,146.11 C509.17,146.11 509.76,160.34 509.76,165.68 C509.76,171.02 512.76,179.91 512.76,179.91 C513.178425,184.950119 514.185273,189.923951 515.76,194.73 C518.13,201.25 520.5,208.96 520.5,208.96 C520.5,208.96 523.5,200.66 535.32,213.11 C538.074953,210.314715 538.074953,205.825285 535.32,203.03 C535.32,203.03 531.77,187.03 531.77,178.72 C531.77,170.41 525.24,130.72 525.24,130.72 C525.24,130.72 521,85.6 506.79,96.9 Z" id="Path" fill="#000000" fill-rule="nonzero" opacity="0.1"></path>
            <path d="M505.61,96.27 L500.87,103.98 C500.87,103.98 505.02,130.66 505.61,135.4 C506.123335,138.820932 506.922806,142.19276 508,145.48 C508,145.48 508.59,159.71 508.59,165.04 C508.59,170.37 511.59,179.27 511.59,179.27 C512.005777,184.310495 513.012688,189.284634 514.59,194.09 C516.96,200.62 519.34,208.32 519.34,208.32 C519.34,208.32 522.34,200.02 534.16,212.47 C536.908389,209.675918 536.908389,205.194082 534.16,202.4 C534.16,202.4 530.6,186.4 530.6,178.09 C530.6,169.78 524.08,130.09 524.08,130.09 C524.08,130.09 519.84,85 505.61,96.27 Z" id="Path" fill="#6C63FF" fill-rule="nonzero"></path>
            <path d="M583.87,92.12 L586.87,95.65 C586.87,95.65 590.36,115.83 582.65,141.33 L580.28,164.45 C580.28,164.45 576.13,184.02 575.54,188.76 C574.95,193.5 574.95,194.09 573.76,195.87 C573.013796,196.730795 573.013796,198.009205 573.76,198.87 L570.2,211.87 C570.2,211.87 564.87,205.35 554.2,213.65 C554.2,213.65 551.2,208.91 553.6,204.76 C556,200.61 555.97,198.83 555.38,197.64 C554.79,196.45 557.75,190.53 557.75,189.34 C557.75,188.15 561.93,160.9 561.93,160.9 C561.93,160.9 563.71,134.22 565.49,125.33 C566.58,119.86 566.56,107.67 566.37,99.09 C566.18,90.15 577,85.31 583.37,91.59 C583.52,91.75 583.7,91.9 583.87,92.12 Z" id="Path" fill="#000000" fill-rule="nonzero" opacity="0.1"></path>
            <path d="M585.65,90.9 L588.65,94.43 C588.65,94.43 592.14,114.62 584.43,140.11 L582.06,163.23 C582.06,163.23 577.91,182.8 577.32,187.54 C576.73,192.28 576.72,192.88 575.54,194.66 C574.789454,195.51917 574.789454,196.80083 575.54,197.66 L572,210.7 C572,210.7 566.67,204.17 556,212.47 C556,212.47 553,207.73 555.41,203.58 C557.82,199.43 557.78,197.65 557.19,196.47 C556.6,195.29 559.56,189.35 559.56,188.17 C559.56,186.99 563.71,159.71 563.71,159.71 C563.71,159.71 565.49,133.03 567.27,124.13 C569.05,115.23 567.86,88.56 567.86,88.56 C567.86,88.56 577.35,82.04 585.65,90.9 Z" id="Path" fill="#6C63FF" fill-rule="nonzero"></path>
            <circle id="Oval" fill="#D18D63" fill-rule="nonzero" cx="545.92" cy="58.92" r="23.72"></circle>
            <path d="M558.29,23.31 C555.954965,29.8276048 549.820127,34.2116214 542.897558,34.3095928 C535.974989,34.4075642 529.718543,30.1989147 527.2,23.75 C536.46,20.02 545.92,23.34 545.92,23.34 C550.65,21.68 554.75,21.83 558.29,23.31 Z" id="Path" fill="#000000" fill-rule="nonzero" opacity="0.1"></path>
            <path d="M544.145,21.9788163 C544.145,21.9788163 497.886352,7.28867763 508.76,86.4597885 C508.76,86.4597885 519.5908,90.4791409 527.02,86.2483901 C527.02,86.2483901 525.009727,38.3091881 545.029975,40.7253036 C565.050223,43.1414191 561.540927,86.4597885 561.540927,86.4597885 C561.540927,86.4597885 573.966721,140.780777 577.40152,134.103327 C578.711898,131.555876 588.208775,115.982493 587.657939,95.0836721 C587.555232,91.1869516 588.206124,86.7087061 587.657939,82.64 C583.439689,51.3315273 561.93,12.1038174 544.145,21.9788163 Z" id="Path" fill="#351E11" fill-rule="nonzero"></path>
            <path d="M544.145,40.83 C529.905,39.21 528.54,56.69 528.74,72.47 C528.91,56.78 530.71971,44.52 543.90971,46.03 C558.71971,47.72 561.98,63.64 562.15,77.78 C562.32,64.8 560.305,42.68 544.145,40.83 Z" id="Path" fill="#000000" fill-rule="nonzero" opacity="0.1"></path>
            <path d="M511.54,82.63 C510.507769,75.8320115 509.916534,68.9743492 509.77,62.1 C509.720523,70.1642225 510.312388,78.219611 511.54,86.19 C511.54,86.19 521.62,92.71 529.32,88.56 C529.32,88.56 529.2,87.28 529.06,85.13 C521.39,89 511.54,82.63 511.54,82.63 Z" id="Path" fill="#000000" fill-rule="nonzero" opacity="0.1"></path>
            <path d="M577.35,80.9 C574.03,86.98 563.52,84.31 562.1,83.9 C562.03,86.1 561.93,87.42 561.93,87.42 C561.93,87.42 573.79,90.97 577.35,84.42 C578.08,83.08 578.46,79.29 578.35,74.22 C578.25,77.47 577.9,79.9 577.35,80.9 Z" id="Path" fill="#000000" fill-rule="nonzero" opacity="0.1"></path>
            <path d="M826.73,670.27 C831.47,661.49 826.09,650.73 819.91,642.9 C813.73,635.07 806.18,626.9 806.34,616.9 C806.57,602.55 821.79,594.09 833.96,586.48 C842.981081,580.83852 851.302356,574.148604 858.75,566.55 C861.75,563.5 864.62,560.24 866.37,556.34 C868.89,550.74 868.82,544.34 868.66,538.22 C868.133333,517.746667 867.133333,497.3 865.66,476.88" id="Path" stroke="#3F3D56" stroke-width="4"></path>
            <path d="M888.74,475.8 C888.39256,468.188242 884.184391,461.280209 877.58,457.48 L872.58,467.38 L872.73,455.38 C863.397257,452.619141 853.350355,456.2093 847.880865,464.259586 C842.411375,472.309873 842.774522,482.972781 848.779042,490.632297 C854.783562,498.291812 865.051442,501.190109 874.174725,497.800691 C883.298007,494.411274 889.182938,485.512 888.73,475.79 L888.74,475.8 Z" id="Path" fill="#6C63FF" fill-rule="nonzero"></path>
            <path d="M848.86,627.19 C844.02459,636.593126 833.263626,641.323862 823.065984,638.529567 C812.868343,635.735273 806.021975,626.179884 806.655249,615.625315 C807.288523,605.070746 815.228308,596.402526 825.686902,594.847606 C836.145496,593.292685 846.263607,599.276166 849.94,609.19 L835.94,620.56 L851.310056,616.99 C851.317953,620.536672 850.477942,624.033861 848.86,627.19 L848.86,627.19 Z" id="Path" fill="#6C63FF" fill-rule="nonzero"></path>
            <path d="M837.81,583.76 C826.483486,584.240016 816.588579,576.17125 814.779481,564.979848 C812.970382,553.788446 819.819119,543.013058 830.72,539.9 L830.6,549.12 L835.66,539.12 L835.72,539.12 C843.738667,538.687215 851.374089,542.585698 855.725938,549.334604 C860.077787,556.083511 860.478284,564.647239 856.775298,571.772843 C853.072313,578.898446 845.83406,583.492521 837.81,583.81 L837.81,583.76 Z" id="Path" fill="#6C63FF" fill-rule="nonzero"></path>
            <path d="M892.11,547.63 C882.6231,548.074198 873.889826,542.479608 870.327238,533.675827 C866.764651,524.872046 869.149421,514.778366 876.275396,508.499905 C883.40137,502.221444 893.715031,501.126954 902,505.77 L898,516.6 L906.13,508.8 C912.785626,514.905363 915.116904,524.41411 912.040019,532.905611 C908.963135,541.397112 901.081777,547.205324 892.06,547.63 L892.11,547.63 Z" id="Path" fill="#6C63FF" fill-rule="nonzero"></path>
            <path d="M885.74,481.76 C880.57,482.33 875.55,483.94 870.37,484.26 C865.19,484.58 859.5,483.34 856.23,479.26 C854.46,477.09 853.58,474.35 852.09,471.98 C850.674858,469.779621 848.741746,467.959818 846.46,466.68 C842.522076,474.422018 843.421763,483.743709 848.767653,490.589697 C854.113544,497.435684 862.939108,500.568221 871.404806,498.624505 C879.870505,496.68079 886.445751,490.012244 888.27,481.52 C887.42,481.61 886.58,481.67 885.74,481.76 Z" id="Path" fill="#000000" fill-rule="nonzero" opacity="0.1"></path>
            <path d="M892.11,547.63 C884.26861,547.989624 876.811549,544.2166 872.456413,537.685941 C868.101276,531.155283 867.484174,522.820857 870.83,515.72 C872.610889,516.914116 874.13984,518.446465 875.33,520.23 C876.92,522.63 877.89,525.41 879.76,527.62 C883.24,531.71 889.2,533.05 894.6,532.81 C900,532.57 905.2,531.03 910.6,530.53 C911.35,530.47 912.1,530.42 912.86,530.4 C910.572565,540.136035 902.100591,547.170835 892.11,547.63 L892.11,547.63 Z" id="Path" fill="#000000" fill-rule="nonzero" opacity="0.1"></path>
            <path d="M837.81,583.76 C830.04892,584.122739 822.655464,580.432456 818.280044,574.012048 C813.904625,567.59164 813.173968,559.360751 816.35,552.27 C818.194629,553.480917 819.798462,555.023716 821.08,556.82 C822.82,559.27 823.9,562.09 825.94,564.36 C829.71,568.56 836.05,570.04 841.77,569.9 C847.31,569.78 852.64,568.42 858.15,568 C855.374722,577.01897 847.236274,583.324867 837.81,583.76 L837.81,583.76 Z" id="Path" fill="#000000" fill-rule="nonzero" opacity="0.1"></path>
            <path d="M848.86,627.19 C843.475015,637.86828 830.643622,642.422459 819.731622,637.528382 C808.819622,632.634304 803.686946,620.023165 808.08,608.9 C809.924508,610.108835 811.579231,611.584942 812.99,613.28 C815.12,615.87 816.52,618.81 818.99,621.22 C823.56,625.71 830.94,627.56 837.51,627.73 C841.300631,627.771711 845.090451,627.591402 848.86,627.19 L848.86,627.19 Z" id="Path" fill="#000000" fill-rule="nonzero" opacity="0.1"></path>
            <path d="M793,660.16 C793,660.16 810.65,659.62 816,655.83 C821.35,652.04 843.16,647.52 844.48,653.59 C845.8,659.66 871.01,683.81 851.08,683.97 C831.15,684.13 804.77,680.87 799.46,677.63 C794.15,674.39 793,660.16 793,660.16 Z" id="Path" fill="#656380" fill-rule="nonzero"></path>
            <path d="M851.4,681.9 C831.47,682.06 805.09,678.79 799.78,675.56 C795.78,673.09 794.13,664.26 793.59,660.18 L793,660.18 C793,660.18 794.12,674.42 799.43,677.65 C804.74,680.88 831.12,684.15 851.05,683.99 C856.8,683.99 858.79,681.9 858.68,678.87 C857.88,680.68 855.69,681.82 851.4,681.9 Z" id="Path" fill="#000000" fill-rule="nonzero" opacity="0.2"></path>
            <path d="M323,40.17 L304.75,51.74 L315.83,31.59 C312.703466,29.0900252 308.832776,27.7036145 304.83,27.65 L304.53,27.65 C303.264226,27.667716 301.999349,27.5740214 300.75,27.37 L294.56,31.29 L297.21,26.47 C292.829649,24.9393722 289.043469,22.0664941 286.39,18.26 L275.32,25.26 L282.32,12.54 C275.84,4.77 267.12,-2.84217094e-14 257.51,-2.84217094e-14 C246,-2.84217094e-14 235.75,6.85 229.13,17.52 C225.144528,24.0140683 217.98586,27.8757803 210.37,27.64 L209.75,27.64 C197.04,27.64 186.75,42.05 186.75,59.83 C186.75,77.61 197.05,92.01 209.75,92.01 C212.53939,92.0018942 215.284959,91.3155021 217.75,90.01 C226.04,85.7 236.92,85.62 245.6,89.47 C253.126632,92.8553832 261.739139,92.8735684 269.28,89.52 C277.9,85.75 288.65,85.83 296.89,90.06 C299.334514,91.3534334 302.054463,92.039423 304.82,92.06 C317.53,92.06 327.82,77.65 327.82,59.88 C327.896149,53.0092336 326.238367,46.230215 323,40.17 Z" id="Path" fill="#F2F2F2" fill-rule="nonzero"></path>
            <path d="M288.59,87.26 C281.950078,85.9973956 275.084509,86.742442 268.87,89.4 C261.331992,92.7505867 252.723786,92.732403 245.2,89.35 C236.51,85.5 225.63,85.58 217.34,89.89 C214.874959,91.1955021 212.12939,91.8818942 209.34,91.89 C198.05,91.89 188.66,80.51 186.7,65.51 C188.955403,63.8670301 190.870764,61.802243 192.34,59.43 C199,48.77 209.21,41.9 220.72,41.9 C232.23,41.9 242.36,48.67 248.98,59.22 C252.997932,65.7031307 260.113219,69.6135046 267.74,69.53 L268,69.53 C277,69.54 284.8,76.75 288.59,87.26 Z" id="Path" fill="#000000" fill-rule="nonzero" opacity="0.03"></path>
            <path d="M800.07,63.73 L791,69.5 L796.53,59.5 C794.96798,58.2371386 793.02839,57.5331133 791.02,57.5 L790.88,57.5 C790.247113,57.508858 789.614674,57.4620107 788.99,57.36 L785.9,59.36 L787.2,56.9 C785.014576,56.138652 783.124945,54.7074316 781.8,52.81 L776.28,56.31 L779.77,49.97 C776.795714,46.1318906 772.254091,43.8335426 767.4,43.71 C761.65,43.71 756.54,47.13 753.24,52.45 C751.2433,55.6755492 747.671186,57.5837294 743.88,57.45 L743.57,57.45 C737.23,57.45 732.09,64.64 732.09,73.45 C732.09,82.26 737.23,89.5 743.57,89.5 C744.964596,89.4951485 746.337191,89.1519995 747.57,88.5 C751.936595,86.3783479 757.014252,86.2796462 761.46,88.23 C765.218861,89.9032755 769.511139,89.9032755 773.27,88.23 C777.682027,86.3191568 782.706271,86.4176713 787.04,88.5 C788.272665,89.1523748 789.645355,89.4955473 791.04,89.5 C797.38,89.5 802.52008,82.32 802.52008,73.45 C802.52955,70.0560335 801.687151,66.7139442 800.07,63.73 Z" id="Path" fill="#F2F2F2" fill-rule="nonzero"></path>
            <path d="M782.92,87.22 C779.609694,86.5948005 776.188268,86.9672242 773.09,88.29 C769.331139,89.9632755 765.038861,89.9632755 761.28,88.29 C756.830861,86.3392791 751.750028,86.4379715 747.38,88.56 C746.148206,89.2146457 744.774945,89.557961 743.38,89.56 C737.74,89.56 733.06,83.89 732.08,76.41 C733.201563,75.5976775 734.158539,74.5796178 734.9,73.41 C738.2,68.09 743.32,64.68 749.06,64.68 C754.8,64.68 759.85,68.05 763.15,73.31 C765.152595,76.5463483 768.704459,78.4968374 772.51,78.45 L772.66,78.45 C777.15,78.38 781,81.98 782.92,87.22 Z" id="Path" fill="#000000" fill-rule="nonzero" opacity="0.03"></path>
            <path d="M204.34,213.17 L219,222.45 L210.12,206.3 C212.637972,204.295683 215.751914,203.18733 218.97,203.15 L219.2,203.15 C220.204524,203.165039 221.208416,203.09142 222.2,202.93 L227.15,206.07 L225,202.21 C228.506783,200.976912 231.538896,198.675724 233.67,195.63 L242.54,201.25 L237,191.06 C242.19,184.84 249.18,181.06 256.87,181.06 C266.1,181.06 274.31,186.54 279.62,195.06 C282.804635,200.256838 288.527691,203.351103 294.62,203.17 L295.12,203.17 C305.3,203.17 313.55,214.71 313.55,228.95 C313.55,243.19 305.3,254.74 295.12,254.74 C292.877996,254.731297 290.671567,254.178832 288.69,253.13 C281.676148,249.722246 273.519955,249.565044 266.38,252.7 C260.334875,255.40209 253.425125,255.40209 247.38,252.7 C240.29294,249.630071 232.222395,249.786957 225.26,253.13 C223.298361,254.151015 221.121421,254.689251 218.91,254.7 C208.72,254.7 200.47,243.16 200.47,228.91 C200.422044,223.422095 201.752723,218.009979 204.34,213.17 L204.34,213.17 Z" id="Path" fill="#F2F2F2" fill-rule="nonzero"></path>
            <path d="M231.89,250.9 C237.210837,249.897309 242.709548,250.495903 247.69,252.62 C253.735125,255.32209 260.644875,255.32209 266.69,252.62 C273.833347,249.484678 281.992714,249.64187 289.01,253.05 C290.987999,254.098763 293.191181,254.651275 295.43,254.66 C304.48,254.66 312,245.55 313.57,233.53 C311.764206,232.208383 310.229632,230.551587 309.05,228.65 C303.74,220.11 295.53,214.65 286.3,214.65 C277.07,214.65 268.97,220.07 263.66,228.53 C260.446501,233.713632 254.758588,236.841984 248.66,236.78 L248.43,236.78 C241.17,236.71 234.93,242.49 231.89,250.9 Z" id="Path" fill="#000000" fill-rule="nonzero" opacity="0.03"></path>
        </g>
    </g>
</svg>